solid Mold for skin
   facet normal 1.000000e+00 0.000000e+00 -0.000000e+00
      outer loop
         vertex 1.075000e+02 1.500000e+01 -1.625000e+02
         vertex 1.075000e+02 1.500000e+01 1.625000e+02
         vertex 1.075000e+02 0.000000e+00 -1.625000e+02
      endloop
   endfacet
   facet normal 1.000000e+00 0.000000e+00 0.000000e+00
      outer loop
         vertex 1.075000e+02 0.000000e+00 -1.625000e+02
         vertex 1.075000e+02 1.500000e+01 1.625000e+02
         vertex 1.075000e+02 0.000000e+00 1.625000e+02
      endloop
   endfacet
   facet normal 0.000000e+00 0.000000e+00 -1.000000e+00
      outer loop
         vertex -1.075000e+02 1.500000e+01 -1.625000e+02
         vertex 1.075000e+02 1.500000e+01 -1.625000e+02
         vertex -1.075000e+02 0.000000e+00 -1.625000e+02
      endloop
   endfacet
   facet normal 0.000000e+00 0.000000e+00 -1.000000e+00
      outer loop
         vertex -1.075000e+02 0.000000e+00 -1.625000e+02
         vertex 1.075000e+02 1.500000e+01 -1.625000e+02
         vertex 1.075000e+02 0.000000e+00 -1.625000e+02
      endloop
   endfacet
   facet normal -1.000000e+00 -0.000000e+00 -0.000000e+00
      outer loop
         vertex -1.075000e+02 1.500000e+01 1.625000e+02
         vertex -1.075000e+02 1.500000e+01 -1.625000e+02
         vertex -1.075000e+02 0.000000e+00 1.625000e+02
      endloop
   endfacet
   facet normal -1.000000e+00 0.000000e+00 0.000000e+00
      outer loop
         vertex -1.075000e+02 0.000000e+00 1.625000e+02
         vertex -1.075000e+02 1.500000e+01 -1.625000e+02
         vertex -1.075000e+02 0.000000e+00 -1.625000e+02
      endloop
   endfacet
   facet normal 0.000000e+00 0.000000e+00 1.000000e+00
      outer loop
         vertex 1.075000e+02 1.500000e+01 1.625000e+02
         vertex -1.075000e+02 1.500000e+01 1.625000e+02
         vertex 1.075000e+02 0.000000e+00 1.625000e+02
      endloop
   endfacet
   facet normal 0.000000e+00 0.000000e+00 1.000000e+00
      outer loop
         vertex 1.075000e+02 0.000000e+00 1.625000e+02
         vertex -1.075000e+02 1.500000e+01 1.625000e+02
         vertex -1.075000e+02 0.000000e+00 1.625000e+02
      endloop
   endfacet
   facet normal 0.000000e+00 1.000000e+00 0.000000e+00
      outer loop
         vertex 1.025000e+02 1.500000e+01 -1.575000e+02
         vertex 1.075000e+02 1.500000e+01 -1.625000e+02
         vertex -1.025000e+02 1.500000e+01 -1.575000e+02
      endloop
   endfacet
   facet normal 0.000000e+00 1.000000e+00 0.000000e+00
      outer loop
         vertex -1.025000e+02 1.500000e+01 -1.575000e+02
         vertex 1.075000e+02 1.500000e+01 -1.625000e+02
         vertex -1.075000e+02 1.500000e+01 -1.625000e+02
      endloop
   endfacet
   facet normal 0.000000e+00 1.000000e+00 -0.000000e+00
      outer loop
         vertex -1.025000e+02 1.500000e+01 -1.575000e+02
         vertex -1.075000e+02 1.500000e+01 -1.625000e+02
         vertex -1.025000e+02 1.500000e+01 1.575000e+02
      endloop
   endfacet
   facet normal 0.000000e+00 1.000000e+00 0.000000e+00
      outer loop
         vertex -1.025000e+02 1.500000e+01 1.575000e+02
         vertex -1.075000e+02 1.500000e+01 -1.625000e+02
         vertex -1.075000e+02 1.500000e+01 1.625000e+02
      endloop
   endfacet
   facet normal 0.000000e+00 1.000000e+00 -0.000000e+00
      outer loop
         vertex -1.025000e+02 1.500000e+01 1.575000e+02
         vertex -1.075000e+02 1.500000e+01 1.625000e+02
         vertex 1.025000e+02 1.500000e+01 1.575000e+02
      endloop
   endfacet
   facet normal 0.000000e+00 1.000000e+00 -0.000000e+00
      outer loop
         vertex 1.025000e+02 1.500000e+01 1.575000e+02
         vertex -1.075000e+02 1.500000e+01 1.625000e+02
         vertex 1.075000e+02 1.500000e+01 1.625000e+02
      endloop
   endfacet
   facet normal -0.000000e+00 1.000000e+00 0.000000e+00
      outer loop
         vertex 1.025000e+02 1.500000e+01 1.575000e+02
         vertex 1.075000e+02 1.500000e+01 1.625000e+02
         vertex 1.025000e+02 1.500000e+01 -1.575000e+02
      endloop
   endfacet
   facet normal -0.000000e+00 1.000000e+00 0.000000e+00
      outer loop
         vertex 1.025000e+02 1.500000e+01 -1.575000e+02
         vertex 1.075000e+02 1.500000e+01 1.625000e+02
         vertex 1.075000e+02 1.500000e+01 -1.625000e+02
      endloop
   endfacet
   facet normal 0.000000e+00 -1.000000e+00 0.000000e+00
      outer loop
         vertex -1.075000e+02 0.000000e+00 1.625000e+02
         vertex -1.075000e+02 0.000000e+00 -1.625000e+02
         vertex 1.075000e+02 0.000000e+00 1.625000e+02
      endloop
   endfacet
   facet normal 0.000000e+00 -1.000000e+00 -0.000000e+00
      outer loop
         vertex 1.075000e+02 0.000000e+00 1.625000e+02
         vertex -1.075000e+02 0.000000e+00 -1.625000e+02
         vertex 1.075000e+02 0.000000e+00 -1.625000e+02
      endloop
   endfacet
   facet normal 0.000000e+00 0.000000e+00 -1.000000e+00
      outer loop
         vertex 1.025000e+02 3.000000e+00 1.575000e+02
         vertex -1.025000e+02 3.000000e+00 1.575000e+02
         vertex 1.025000e+02 1.500000e+01 1.575000e+02
      endloop
   endfacet
   facet normal -0.000000e+00 0.000000e+00 -1.000000e+00
      outer loop
         vertex 1.025000e+02 1.500000e+01 1.575000e+02
         vertex -1.025000e+02 3.000000e+00 1.575000e+02
         vertex -1.025000e+02 1.500000e+01 1.575000e+02
      endloop
   endfacet
   facet normal 1.000000e+00 -0.000000e+00 0.000000e+00
      outer loop
         vertex -1.025000e+02 3.000000e+00 1.575000e+02
         vertex -1.025000e+02 3.000000e+00 -1.575000e+02
         vertex -1.025000e+02 1.500000e+01 1.575000e+02
      endloop
   endfacet
   facet normal 1.000000e+00 0.000000e+00 0.000000e+00
      outer loop
         vertex -1.025000e+02 1.500000e+01 1.575000e+02
         vertex -1.025000e+02 3.000000e+00 -1.575000e+02
         vertex -1.025000e+02 1.500000e+01 -1.575000e+02
      endloop
   endfacet
   facet normal 0.000000e+00 0.000000e+00 1.000000e+00
      outer loop
         vertex -1.025000e+02 3.000000e+00 -1.575000e+02
         vertex 1.025000e+02 3.000000e+00 -1.575000e+02
         vertex -1.025000e+02 1.500000e+01 -1.575000e+02
      endloop
   endfacet
   facet normal -0.000000e+00 0.000000e+00 1.000000e+00
      outer loop
         vertex -1.025000e+02 1.500000e+01 -1.575000e+02
         vertex 1.025000e+02 3.000000e+00 -1.575000e+02
         vertex 1.025000e+02 1.500000e+01 -1.575000e+02
      endloop
   endfacet
   facet normal -1.000000e+00 0.000000e+00 0.000000e+00
      outer loop
         vertex 1.025000e+02 3.000000e+00 -1.575000e+02
         vertex 1.025000e+02 3.000000e+00 1.575000e+02
         vertex 1.025000e+02 1.500000e+01 -1.575000e+02
      endloop
   endfacet
   facet normal -1.000000e+00 0.000000e+00 0.000000e+00
      outer loop
         vertex 1.025000e+02 1.500000e+01 -1.575000e+02
         vertex 1.025000e+02 3.000000e+00 1.575000e+02
         vertex 1.025000e+02 1.500000e+01 1.575000e+02
      endloop
   endfacet
   facet normal 0.000000e+00 1.000000e+00 -0.000000e+00
      outer loop
         vertex 1.025000e+02 3.000000e+00 -1.575000e+02
         vertex -1.025000e+02 3.000000e+00 -1.575000e+02
         vertex 1.025000e+02 3.000000e+00 1.575000e+02
      endloop
   endfacet
   facet normal 0.000000e+00 1.000000e+00 0.000000e+00
      outer loop
         vertex 1.025000e+02 3.000000e+00 1.575000e+02
         vertex -1.025000e+02 3.000000e+00 -1.575000e+02
         vertex -1.025000e+02 3.000000e+00 1.575000e+02
      endloop
   endfacet
endsolid